<?xml version="1.0" encoding="utf-8"?>
<!-- Generator: Adobe Illustrator 19.0.0, SVG Export Plug-In . SVG Version: 6.00 Build 0)  -->
<svg version="1.1" id="Logo" xmlns="http://www.w3.org/2000/svg" xmlns:xlink="http://www.w3.org/1999/xlink" x="0px" y="0px"
	 viewBox="2671 -1557.6 6301 3675.6" style="enable-background:new 2671 -1557.6 6301 3675.6;" xml:space="preserve">
<style type="text/css">
	.st0{fill:#76BD70;}
	.st1{fill:#536D50;}
	.st2{fill:#4D664A;}
	.st3{fill:#639B5D;}
</style>
<path id="XMLID_931_" class="st0" d="M4481.3-1181.1L6939,744.2c8.3,6.5,19.9,8.9,30,13.2c3.7-10.9,5.4-21.1,5.4-32L6962-1177.2
	l294.4,230.8c8.2,6.5,15.8,19.7,15.8,29.8c0.7,790.7,0.6,1581.5,0.6,2372.2v33.2C7256.1,1485,4828.1-435,4823.5-437.8
	c-16.7-10.4-31.3-9.8-33.1,10c-1,10.7-0.3,21.6-0.3,32.5c0,283.2-0.8,600.2-0.3,883.4c0,18.1-5.6,29.3-20,40.4
	c-84.6,65-279.5,219.8-287.4,225.6C4482.4,131.7,4481.3-556.3,4481.3-1181.1z"/>
<path id="XMLID_930_" class="st1" d="M4789.8-422.2c0.5-23,12.2-32.1,28.6-21.8l2454.4,1932.8l-312,252.6
	c0,0-1506.8-1177-2155.6-1684.8c-8.3-6.5-15.1-19.3-15.2-29.3L4789.8-422.2z"/>
<path id="XMLID_926_" class="st2" d="M6642.3-448.2l1.2,4.7c8.4,26.9,7.6,26.7,7.3,70.1c0,0-0.4,256.2,0.3,395.5
	c0.1,16.4-5,26.6-18,36.6l-286.4,222.8L6052,51.5l553.5-483L6642.3-448.2z"/>
<path id="XMLID_929_" class="st3" d="M4481.3-1181.1l1.2,1935.1l605.3-476.4l331.2,259l-1250.5,962.6c0,0-0.1-1625.7,0.5-2412.5
	c0-10,4.4-23.7,11.7-29.5L4481.3-1181.1z"/>
<path id="XMLID_928_" class="st3" d="M6052,51.5l-331.4-258.9C6119.2-518.9,6562-864.6,6962-1177.2l17.2,1905.9
	c-1.1,8.7-8.7,23.8-10.3,28.6l-21.7-8c-2.9-1.2-5.6-2.8-8.1-4.7l-10.4-8.4l-264.6-206.4c-12.8-9.8-13.2-20.9-13.2-34.2
	c0.1-286.3,0.1-572.5-0.5-858.8c0-14.3-6.2-28.5-9.5-42.8c-13.3,6.2-28.3,10.1-39.6,18.9L6052,51.5z"/>
<path id="XMLID_927_" class="st2" d="M5418.9,536.6L5718,770.4c0,0-834.6,654.4-1239.8,971c-99.1-77.4-208.6-163.1-309.9-242.2
	L5418.9,536.6z"/>
</svg>
