<?xml version="1.0" encoding="utf-8"?>
<!-- Generator: Adobe Illustrator 19.0.0, SVG Export Plug-In . SVG Version: 6.00 Build 0)  -->
<svg version="1.1" id="Logo" xmlns="http://www.w3.org/2000/svg" xmlns:xlink="http://www.w3.org/1999/xlink" x="0px" y="0px"
	 viewBox="-1036.5 -1614.3 13744 3675.6" style="enable-background:new -1036.5 -1614.3 13744 3675.6;" xml:space="preserve">
<style type="text/css">
	.st0{fill:#76BD70;}
	.st1{fill:#536D50;}
	.st2{fill:#4D664A;}
	.st3{fill:#639B5D;}
	.st4{fill:#3C3C3C;}
</style>
<path id="XMLID_931_" class="st0" d="M145.6-1019.7l2091,1638.1c7.1,5.5,16.9,7.6,25.5,11.2c3.1-9.3,4.6-18,4.6-27.2l-10.6-1618.7
	l250.5,196.4c7,5.5,13.4,16.8,13.4,25.4c0.6,672.7,0.5,1345.5,0.5,2018.3v28.2c-14.2-3.2-2080-1636.8-2083.9-1639.1
	c-14.2-8.8-26.6-8.4-28.1,8.5c-0.9,9.1-0.3,18.4-0.3,27.7c0,240.9-0.7,510.7-0.3,751.6c0,15.4-4.8,24.9-17,34.4
	c-72,55.3-237.8,187-244.5,191.9C146.5,97.2,145.6-488.2,145.6-1019.7z"/>
<path id="XMLID_930_" class="st1" d="M408.1-374.1c0.4-19.6,10.4-27.3,24.3-18.5l2088.2,1644.4l-265.5,214.9
	c0,0-1282-1001.4-1834-1433.4c-7.1-5.5-12.8-16.4-12.9-24.9L408.1-374.1z"/>
<path id="XMLID_926_" class="st2" d="M1984.2-396.2l1,4c7.1,22.9,6.5,22.7,6.2,59.6c0,0-0.3,218,0.3,336.5
	c0.1,14-4.3,22.6-15.3,31.1l-243.7,189.6L1481.9,29L1952.9-382L1984.2-396.2z"/>
<path id="XMLID_929_" class="st3" d="M145.6-1019.7l1,1646.4l515-405.3l281.8,220.4l-1063.9,819c0,0-0.1-1383.2,0.4-2052.6
	c0-8.5,3.7-20.2,10-25.1L145.6-1019.7z"/>
<path id="XMLID_928_" class="st3" d="M1481.9,29l-282-220.3c339.1-265,715.9-559.1,1056.2-825.1l14.6,1621.6
	c-0.9,7.4-7.4,20.2-8.8,24.3l-18.5-6.8c-2.5-1-4.8-2.4-6.9-4l-8.8-7.1l-225.1-175.6c-10.9-8.3-11.2-17.8-11.2-29.1
	c0.1-243.6,0.1-487.1-0.4-730.7c0-12.2-5.3-24.2-8.1-36.4c-11.3,5.3-24.1,8.6-33.7,16.1L1481.9,29z"/>
<path id="XMLID_927_" class="st2" d="M943.3,441.7l254.5,198.9c0,0-710.1,556.8-1054.8,826.1c-84.3-65.9-177.5-138.8-263.7-206.1
	L943.3,441.7z"/>
<g>
	<path class="st4" d="M3542.8,576.7v-589h-208.3c-20.1,0-37-16.9-37-37v-76.1c0-20.1,16.9-37,37-37h570c20.1,0,36,16.9,36,37v76.1
		c0,20.1-15.9,37-36,37h-208.3v589c0,20.1-16.9,37-37,37h-79.3C3558.7,613.7,3542.8,596.8,3542.8,576.7z"/>
	<path class="st4" d="M4039.8,577.7V231.9c0-20.1,16.9-37,37-37h323.6c80.4,0,133.2-28.6,133.2-100.5c0-70.8-52.9-108.9-129-108.9
		h-327.8c-20.1,0-37-16.9-37-36v-76.1c0-19,16.9-36,37-36h337.3c162.8,0,272.8,101.5,272.8,257c0,106.8-51.8,187.2-149.1,219.9
		l158.6,243.2c4.2,6.3,6.3,13.7,6.3,20.1c0,19-18,36-37,36h-95.2c-12.7,0-23.3-5.3-30.7-16.9L4380.3,344h-187.2v233.7
		c0,19-16.9,36-37,36h-79.3C4056.7,613.7,4039.8,596.8,4039.8,577.7z"/>
	<path class="st4" d="M4762,223.5C4762-0.7,4930.1-173,5155.4-173c225.2,0,393.4,172.4,393.4,396.5c0,225.2-168.1,396.5-393.4,396.5
		C4930.1,620,4762,448.7,4762,223.5z M5395.4,223.5c0-142.8-95.2-245.3-240-245.3s-240,102.6-240,245.3
		c0,143.8,95.2,245.3,240,245.3S5395.4,367.3,5395.4,223.5z"/>
	<path class="st4" d="M5654.5,576.7v-702.1c0-20.1,16.9-37,37-37h92c11.6,0,23.3,5.3,29.6,14.8l368,500.2v-478c0-20.1,15.9-37,36-37
		h80.4c20.1,0,37,16.9,37,37v702.1c0,20.1-16.9,37-37,37h-93.1c-11.6,0-22.2-5.3-29.6-14.8L5807.8,96.6v480.1c0,20.1-16.9,37-37,37
		h-79.3C5671.4,613.7,5654.5,596.8,5654.5,576.7z"/>
	<path class="st4" d="M6503.6,576.7v-702.1c0-20.1,16.9-37,37-37h92c11.6,0,22.2,5.3,29.6,14.8l222.1,294l217.8-294
		c6.3-9.5,18-14.8,29.6-14.8h92c20.1,0,37,16.9,37,37v702.1c0,20.1-16.9,37-37,37h-79.3c-20.1,0-37-16.9-37-37V102.9l-194.6,249.6
		c-6.3,8.5-16.9,13.7-28.6,13.7c-11.6,0-22.2-5.3-28.6-13.7l-198.8-250.6v474.8c0,20.1-16.9,37-37,37h-79.3
		C6520.5,613.7,6503.6,596.8,6503.6,576.7z"/>
	<path class="st4" d="M7351.6,576.7c0-5.3,1.1-9.5,3.2-14.8l32.8-74c6.3-14.8,19-23.3,33.8-23.3h487.5L7736.5,52.2l-140.6,336.3
		c-6.3,13.7-21.1,22.2-33.8,22.2h-88.8c-15.9,0-34.9-14.8-34.9-37c0-5.3,1.1-9.5,3.2-14.8l210.4-498.1c6.3-14.8,18-23.3,33.8-23.3
		h101.5c14.8,0,27.5,8.5,33.8,23.3l297.1,701.1c2.1,4.2,3.2,9.5,3.2,13.7c0,22.2-19,38.1-37,38.1h-695.8
		C7368.6,613.7,7351.6,596.8,7351.6,576.7z"/>
	<path class="st4" d="M8163.7,364.1c0-20.1,16.9-36,37-36h82.5c20.1,0,36,14.8,37,33.8c4.2,68.7,68.7,108.9,185.1,108.9
		c160.7,0,160.7-63.4,160.7-86.7c0-37-47.6-56-98.3-71.9c-181.9-57.1-382.8-71.9-382.8-253.8c0-133.2,101.5-231.6,301.4-231.6
		c184,0,314.1,97.3,314.1,239c0,20.1-16.9,34.9-36,34.9h-82.5c-69.8,0,15.9-125.8-202-125.8c-132.2,0-143.8,55-143.8,88.8
		c0,66.6,282.3,85.7,391.3,155.4c59.2,38.1,92,94.1,92,161.8c0,150.2-118.4,239-315.1,239C8302.3,620,8163.7,525.9,8163.7,364.1z"/>
	<path class="st4" d="M8918.7,576.7v-702.1c0-20.1,16.9-37,37-37h79.3c20.1,0,37,16.9,37,37v251.7L9369.2-153
		c6.3-6.3,15.9-9.5,25.4-9.5h112.1c19,0,37,16.9,37,37c0,9.5-4.2,19-11.6,26.4l-244.3,231.6l297.1,423c4.2,6.3,7.4,14.8,7.4,22.2
		c0,21.1-18,36-37,36h-100.5c-11.6,0-23.3-6.3-29.6-15.9l-250.6-360.6l-102.6,96.2v243.2c0,20.1-16.9,37-37,37h-79.3
		C8935.7,613.7,8918.7,596.8,8918.7,576.7z"/>
</g>
</svg>
